<?xml version="1.0" encoding="UTF-8" standalone="no"?>
<svg
   xmlns:dc="http://purl.org/dc/elements/1.1/"
   xmlns:cc="http://creativecommons.org/ns#"
   xmlns:rdf="http://www.w3.org/1999/02/22-rdf-syntax-ns#"
   xmlns:svg="http://www.w3.org/2000/svg"
   xmlns="http://www.w3.org/2000/svg"
   xmlns:sodipodi="http://sodipodi.sourceforge.net/DTD/sodipodi-0.dtd"
   xmlns:inkscape="http://www.inkscape.org/namespaces/inkscape"
   width="66.06366"
   height="115.65063"
   viewBox="0 0 17.479343 30.599228"
   version="1.1"
   id="svg891"
   inkscape:version="1.0.1 (3bc2e813f5, 2020-09-07)"
   sodipodi:docname="person_sit.svg">
  <defs
     id="defs885" />
  <sodipodi:namedview
     id="base"
     pagecolor="#ffffff"
     bordercolor="#666666"
     borderopacity="1.0"
     inkscape:pageopacity="0.0"
     inkscape:pageshadow="2"
     inkscape:zoom="6.9166667"
     inkscape:cx="34.808946"
     inkscape:cy="55.683141"
     inkscape:document-units="mm"
     inkscape:current-layer="layer1"
     inkscape:document-rotation="0"
     showgrid="false"
     fit-margin-top="0"
     fit-margin-left="0"
     fit-margin-right="0"
     fit-margin-bottom="0"
     inkscape:window-width="1566"
     inkscape:window-height="1030"
     inkscape:window-x="32"
     inkscape:window-y="0"
     inkscape:window-maximized="0" />
  <metadata
     id="metadata888">
    <rdf:RDF>
      <cc:Work
         rdf:about="">
        <dc:format>image/svg+xml</dc:format>
        <dc:type
           rdf:resource="http://purl.org/dc/dcmitype/StillImage" />
        <dc:title></dc:title>
      </cc:Work>
    </rdf:RDF>
  </metadata>
  <g
     inkscape:label="Layer 1"
     inkscape:groupmode="layer"
     id="layer1"
     transform="translate(1.2723669,-1.142169)">
    <ellipse
       style="fill:#ffffff;stroke:#000000;stroke-width:2"
       id="path1454"
       cx="8.0713854"
       cy="4.5903616"
       rx="2.3716867"
       ry="2.4481926" />
    <rect
       style="fill:#ffffff;stroke:#000000;stroke-width:2"
       id="rect1456"
       width="4.4756021"
       height="7.777266"
       x="5.9292164"
       y="9.0277109" />
    <circle
       id="path1464"
       style="fill:#ffffff;stroke:#000000;stroke-width:0.264583"
       cx="6.120482"
       cy="9.869277"
       r="0.0025476506" />
    <path
       style="fill:#ffffff;stroke:#000000;stroke-width:2"
       id="path1466"
       d="M 5.9045913,10.144925 C 5.8164155,10.291018 5.7252171,10.435329 5.6400636,10.583204 5.4011332,10.998122 5.1213705,11.52238 4.8993028,11.941438 4.5747095,12.55397 4.2592124,13.171001 3.9458,13.789293 3.7759727,14.101777 3.6342711,14.429096 3.4640755,14.74138 c -0.084855,0.155697 -0.1808824,0.306375 -0.2767991,0.455423 -0.063196,0.08813 -0.1143434,0.184353 -0.1789274,0.271531 -0.013631,0.0184 -0.030613,0.03425 -0.043386,0.05326 -0.022744,0.03384 -0.06468,0.119849 -0.081712,0.153519 -0.1275495,0.288419 -0.2675609,0.571008 -0.4106101,0.852111 -0.1289899,0.24762 -0.2462988,0.501744 -0.3903864,0.741152 -0.1041136,0.14269 -0.226883,0.269623 -0.332295,0.411583 0,0 0.033915,-0.01463 0.033915,-0.01463 v 0 c 0.1055264,-0.14187 0.2286241,-0.268617 0.332022,-0.411858 0.1434151,-0.239199 0.2595277,-0.493336 0.3882823,-0.740486 0.1432975,-0.281583 0.2845511,-0.564189 0.4125719,-0.853 0.019542,-0.03836 0.057025,-0.115336 0.08239,-0.152966 0.012777,-0.01895 0.029474,-0.03499 0.043,-0.05342 0.06404,-0.08724 0.1151388,-0.183148 0.177962,-0.271221 0.095394,-0.148902 0.1908852,-0.2994 0.2750444,-0.45502 0.1685486,-0.311667 0.3085033,-0.638304 0.477045,-0.949988 0.3117067,-0.618054 0.6256983,-1.23471 0.9500921,-1.846246 0.2262134,-0.426451 0.5008649,-0.939493 0.7452574,-1.360078 0.08635,-0.148602 0.1791531,-0.29336 0.2687296,-0.44004 0,0 -0.03168,0.01393 -0.03168,0.01393 z" />
    <path
       style="fill:#ffffff;stroke:#000000;stroke-width:2"
       id="path1468"
       d="m 11.257656,10.023456 c 0.04519,0.08474 0.09177,0.168744 0.135565,0.254213 0.106717,0.208289 0.209501,0.418576 0.315931,0.627013 0.635913,1.245395 1.283587,2.484716 1.918269,3.730764 0.33935,0.667179 0.663026,1.342352 0.971206,2.024481 0.142677,0.315803 0.278693,0.632486 0.400107,0.956925 0.05416,0.147802 0.09545,0.29885 0.110911,0.455428 0,0 0.03284,-0.01715 0.03284,-0.01715 v 0 c -0.01619,-0.156599 -0.05875,-0.307388 -0.11375,-0.454954 -0.123217,-0.323599 -0.261124,-0.639341 -0.405137,-0.954364 -0.311156,-0.680636 -0.636552,-1.354818 -0.977119,-2.021236 -0.636121,-1.245263 -1.286111,-2.483747 -1.913823,-3.73327 -0.105125,-0.209262 -0.205551,-0.420859 -0.310217,-0.630351 -0.04288,-0.08583 -0.08827,-0.170383 -0.13241,-0.255575 0,0 -0.03237,0.01807 -0.03237,0.01807 z" />
    <g
       id="g865"
       transform="matrix(1,0,0,0.81324487,0,1.6859713)"
       style="stroke-width:1.10889">
      <path
         style="fill:#000000;fill-opacity:1;stroke:#000000;stroke-width:2.21778"
         id="path859"
         d="m 5.706474,18.974765 c -0.07186,0.348393 -0.1610357,0.692291 -0.2610278,1.033544 -0.087038,0.324387 -0.2095077,0.636677 -0.3419308,0.94471 -0.122073,0.278765 -0.2885295,0.531543 -0.457884,0.782704 -0.1182637,0.160034 -0.2107012,0.336752 -0.2615448,0.529903 -0.014655,0.05568 -0.024463,0.112518 -0.036696,0.168777 -0.057056,0.304495 -0.1038926,0.61113 -0.1422072,0.918571 -0.014692,0.120346 -0.031031,0.239505 0.024035,0.352897 0.023924,0.04926 0.073098,0.111479 0.105601,0.15532 0.074455,0.08947 0.1669312,0.174932 0.2899555,0.182183 0.022122,0.0013 0.044215,-0.0031 0.066323,-0.0046 0.2136822,-0.06453 0.3036178,-0.250237 0.3890676,-0.438586 0.098948,-0.241065 0.1980928,-0.482504 0.3187883,-0.713669 0.014968,-0.02245 0.029585,-0.04513 0.044907,-0.06734 0.00847,-0.01227 0.063734,-0.08753 0.073188,-0.104223 0.041132,-0.07263 0.065865,-0.154203 0.095963,-0.231675 0.038282,-0.09149 0.061431,-0.187685 0.085138,-0.283615 0,0 -0.032784,0.01571 -0.032784,0.01571 v 0 c -0.024006,0.09588 -0.047702,0.191885 -0.085837,0.283434 -0.030058,0.07754 -0.055215,0.158556 -0.096689,0.231067 -0.00911,0.01593 -0.064985,0.09264 -0.072836,0.104127 -0.015229,0.02228 -0.029705,0.04508 -0.044558,0.06761 -0.1198398,0.231546 -0.2187553,0.472974 -0.3183958,0.713703 -0.072155,0.158336 -0.1480508,0.341832 -0.3260254,0.401367 -0.021915,0.0018 -0.043782,0.0064 -0.065743,0.0054 -0.122365,-0.006 -0.214671,-0.09107 -0.2888173,-0.179628 -0.032434,-0.04366 -0.081243,-0.105188 -0.1050375,-0.154374 -0.05454,-0.11274 -0.037718,-0.231706 -0.023508,-0.351262 0.037511,-0.307254 0.08389,-0.613703 0.1414386,-0.917823 0.012425,-0.05622 0.022429,-0.113038 0.037271,-0.168672 0.051442,-0.192809 0.1443796,-0.36901 0.2622224,-0.529094 0.1692018,-0.251184 0.3348924,-0.504371 0.4569476,-0.78302 0.1324025,-0.308026 0.2548948,-0.620281 0.3412479,-0.944863 0.1000816,-0.341975 0.188808,-0.686684 0.2631969,-1.03524 0,0 -0.033769,0.01668 -0.033769,0.01668 z" />
      <path
         style="fill:#000000;fill-opacity:1;stroke:#000000;stroke-width:2.21778"
         id="path861"
         d="m 10.229666,18.277579 c 0.06139,0.192847 0.146422,0.377197 0.214116,0.567899 0.06892,0.19416 0.120428,0.367337 0.181678,0.56458 0.144853,0.457477 0.236271,0.928513 0.317431,1.400604 0.05208,0.337558 0.06416,0.679116 0.09436,1.018872 0.01268,0.132387 0.0239,0.264905 0.02815,0.397851 0.0028,0.169048 0.0021,0.338134 0.002,0.507198 -1.92e-4,0.157664 -3.44e-4,0.315328 -5.56e-4,0.472991 0.0039,0.111539 0.0051,0.186469 -0.03777,0.290466 -0.05497,0.134695 -0.152337,0.243581 -0.236736,0.359813 -0.06782,0.08154 -0.14947,0.150111 -0.244254,0.198311 -0.02796,0.01422 -0.05903,0.02124 -0.0885,0.03199 -0.11717,0.03489 -0.241252,0.04324 -0.36127,0.02206 -0.0286,-0.01527 -0.05922,-0.02723 -0.08579,-0.0458 -0.1585113,-0.11072 -0.277116,-0.279549 -0.4005053,-0.425562 0,0 -0.030856,0.01856 -0.030856,0.01856 v 0 c 0.1240205,0.146119 0.2425909,0.315062 0.4006451,0.427076 0.026682,0.01891 0.057421,0.03132 0.086131,0.04697 0.120136,0.02225 0.244658,0.0139 0.362277,-0.02037 0.153253,-0.05511 0.292483,-0.140717 0.396217,-0.267993 0.08464,-0.116338 0.181652,-0.225734 0.236541,-0.360703 0.04256,-0.104264 0.04099,-0.180155 0.03706,-0.29173 -6.9e-5,-0.157591 9e-6,-0.315183 1.31e-4,-0.472774 1.18e-4,-0.169209 7.67e-4,-0.338431 -0.0014,-0.507629 -0.0043,-0.132871 -0.01623,-0.265261 -0.02922,-0.397538 -0.03107,-0.339611 -0.04407,-0.681012 -0.09561,-1.018546 -0.08186,-0.471957 -0.173727,-0.942878 -0.3192,-1.400153 -0.06061,-0.195873 -0.113036,-0.372187 -0.180909,-0.565238 -0.06708,-0.1908 -0.151208,-0.375593 -0.210737,-0.56893 0,0 -0.0334,0.01772 -0.0334,0.01772 z" />
    </g>
    <rect
       style="fill:#0000ff;fill-rule:evenodd;stroke-width:0.264583"
       id="rect857"
       width="4.0548186"
       height="4.5521088"
       x="7.3345599"
       y="12.490559" />
  </g>
</svg>
