<?xml version="1.0" encoding="UTF-8" standalone="no"?>
<svg
   xmlns:dc="http://purl.org/dc/elements/1.1/"
   xmlns:cc="http://creativecommons.org/ns#"
   xmlns:rdf="http://www.w3.org/1999/02/22-rdf-syntax-ns#"
   xmlns:svg="http://www.w3.org/2000/svg"
   xmlns="http://www.w3.org/2000/svg"
   xmlns:sodipodi="http://sodipodi.sourceforge.net/DTD/sodipodi-0.dtd"
   xmlns:inkscape="http://www.inkscape.org/namespaces/inkscape"
   width="66.06366"
   height="115.65063"
   viewBox="0 0 17.479343 30.599228"
   version="1.1"
   id="svg891"
   inkscape:version="1.0.1 (3bc2e813f5, 2020-09-07)"
   sodipodi:docname="person.svg">
  <defs
     id="defs885" />
  <sodipodi:namedview
     id="base"
     pagecolor="#ffffff"
     bordercolor="#666666"
     borderopacity="1.0"
     inkscape:pageopacity="0.0"
     inkscape:pageshadow="2"
     inkscape:zoom="6.9166667"
     inkscape:cx="34.808946"
     inkscape:cy="55.683141"
     inkscape:document-units="mm"
     inkscape:current-layer="layer1"
     inkscape:document-rotation="0"
     showgrid="false"
     fit-margin-top="0"
     fit-margin-left="0"
     fit-margin-right="0"
     fit-margin-bottom="0"
     inkscape:window-width="1566"
     inkscape:window-height="1030"
     inkscape:window-x="32"
     inkscape:window-y="0"
     inkscape:window-maximized="0" />
  <metadata
     id="metadata888">
    <rdf:RDF>
      <cc:Work
         rdf:about="">
        <dc:format>image/svg+xml</dc:format>
        <dc:type
           rdf:resource="http://purl.org/dc/dcmitype/StillImage" />
        <dc:title></dc:title>
      </cc:Work>
    </rdf:RDF>
  </metadata>
  <g
     inkscape:label="Layer 1"
     inkscape:groupmode="layer"
     id="layer1"
     transform="translate(1.2723669,-1.142169)">
    <ellipse
       style="fill:#ffffff;stroke:#000000;stroke-width:2"
       id="path1454"
       cx="8.0713854"
       cy="4.5903616"
       rx="2.3716867"
       ry="2.4481926" />
    <rect
       style="fill:#ffffff;stroke:#000000;stroke-width:2"
       id="rect1456"
       width="4.4756021"
       height="9.5632524"
       x="5.9292169"
       y="9.0277109" />
    <path
       style="fill:#ffffff;stroke:#000000;stroke-width:2"
       id="path1460"
       d="m 6.2949004,19.23905 c -0.1032065,0.454034 -0.3162429,0.872237 -0.5207267,1.287177 -0.2752373,0.552836 -0.4638953,1.141831 -0.6694482,1.722572 -0.1494959,0.435125 -0.2618893,0.881426 -0.4034639,1.319105 -0.1765112,0.522875 -0.4295513,1.015379 -0.6748708,1.508345 -0.04643,0.08743 -0.092942,0.174827 -0.1392913,0.262304 -0.1263512,0.238468 -0.1229039,0.237337 -0.2519209,0.464864 -0.097352,0.171686 -0.1483704,0.248466 -0.2382528,0.427084 -0.039235,0.07797 -0.074174,0.158026 -0.1112617,0.237039 -0.2640992,0.534424 -0.4193173,1.110282 -0.584984,1.680025 -0.2327726,0.766427 -0.5067511,1.521272 -0.8265651,2.255753 -0.037079,0.05301 -0.1159212,0.299466 -0.1920162,0.329211 -0.00645,0.0026 0.012469,-0.0098 0.012254,-0.01677 -2.242e-4,-0.0072 -0.00887,-0.01143 -0.013306,-0.01712 0,0 -0.032553,0.01937 -0.032553,0.01937 v 0 c 0.024301,0.03212 0.012906,0.03053 0.068533,5.29e-4 0.078219,-0.04234 0.1471971,-0.266004 0.1882816,-0.329417 0.316919,-0.735285 0.5896027,-1.489953 0.8245464,-2.255268 0.1670499,-0.569627 0.3223267,-1.145768 0.5868175,-1.68031 0.037157,-0.07897 0.072164,-0.158998 0.11147,-0.236925 0.08822,-0.174906 0.1429893,-0.258602 0.2382848,-0.427052 0.1277742,-0.22586 0.1260673,-0.228065 0.2512372,-0.46463 0.046295,-0.08749 0.092774,-0.174894 0.1391611,-0.262341 0.2454171,-0.493184 0.4992917,-0.985571 0.6750931,-1.508999 0.141783,-0.437656 0.2554358,-0.883598 0.4037388,-1.319134 0.2045941,-0.580887 0.3931049,-1.169796 0.6692455,-1.722038 0.2048214,-0.416284 0.4181901,-0.83565 0.5236906,-1.290419 0,0 -0.033693,0.01717 -0.033693,0.01717 z" />
    <path
       style="fill:#ffffff;stroke:#000000;stroke-width:2"
       id="path1462"
       d="m 9.6883015,19.711549 c 0.037349,0.08214 0.073329,0.164925 0.1120473,0.246432 0.057798,0.121672 0.1213607,0.240591 0.1774733,0.363049 0.1558989,0.340225 0.4066089,0.939163 0.5524409,1.269004 0.254458,0.575535 0.350138,0.770596 0.615671,1.33518 0.09888,0.209199 0.19927,0.417688 0.296631,0.627597 0.0945,0.203752 0.190259,0.407003 0.27895,0.613352 0.212936,0.495416 0.334363,0.82922 0.52237,1.330131 0.269705,0.718579 0.1936,0.514406 0.445321,1.213615 0.268804,0.744072 0.491716,1.503998 0.659847,2.276989 0.03295,0.195135 0.07584,0.390668 0.151338,0.574257 0.04556,0.07362 0.09208,0.146468 0.140614,0.21818 0.05614,0.06137 0.11389,0.120791 0.168591,0.183626 0.07899,0.09798 0.136964,0.207619 0.184952,0.323424 0,0 0.03242,-0.01815 0.03242,-0.01815 v 0 c -0.04817,-0.116152 -0.106288,-0.226174 -0.185233,-0.324657 -0.05456,-0.06276 -0.11204,-0.122211 -0.168306,-0.183269 -0.0484,-0.0715 -0.09479,-0.144118 -0.140399,-0.217424 C 13.45706,29.359944 13.413613,29.164973 13.379726,28.970427 13.207909,28.19863 12.983315,27.439681 12.713974,26.696193 12.469167,26.018824 12.529265,26.178378 12.267669,25.483077 12.091514,25.014871 11.943491,24.614028 11.745452,24.152654 11.656862,23.946259 11.560818,23.743131 11.466199,23.539428 11.368729,23.329583 11.2682,23.121172 11.1692,22.912045 10.908737,22.359142 10.801749,22.140842 10.553278,21.577108 10.496988,21.449401 10.080648,20.471877 10.00547,20.305335 9.950044,20.18255 9.8884207,20.062657 9.8298962,19.941318 c -0.036855,-0.08238 -0.07371,-0.164755 -0.1105646,-0.247133 0,0 -0.031035,0.01737 -0.031035,0.01737 z" />
    <circle
       id="path1464"
       style="fill:#ffffff;stroke:#000000;stroke-width:0.264583"
       cx="6.120482"
       cy="9.869277"
       r="0.0025476506" />
    <path
       style="fill:#ffffff;stroke:#000000;stroke-width:2"
       id="path1466"
       d="M 5.9045913,10.144925 C 5.8164155,10.291018 5.7252171,10.435329 5.6400636,10.583204 5.4011332,10.998122 5.1213705,11.52238 4.8993028,11.941438 4.5747095,12.55397 4.2592124,13.171001 3.9458,13.789293 3.7759727,14.101777 3.6342711,14.429096 3.4640755,14.74138 c -0.084855,0.155697 -0.1808824,0.306375 -0.2767991,0.455423 -0.063196,0.08813 -0.1143434,0.184353 -0.1789274,0.271531 -0.013631,0.0184 -0.030613,0.03425 -0.043386,0.05326 -0.022744,0.03384 -0.06468,0.119849 -0.081712,0.153519 -0.1275495,0.288419 -0.2675609,0.571008 -0.4106101,0.852111 -0.1289899,0.24762 -0.2462988,0.501744 -0.3903864,0.741152 -0.1041136,0.14269 -0.226883,0.269623 -0.332295,0.411583 0,0 0.033915,-0.01463 0.033915,-0.01463 v 0 c 0.1055264,-0.14187 0.2286241,-0.268617 0.332022,-0.411858 0.1434151,-0.239199 0.2595277,-0.493336 0.3882823,-0.740486 0.1432975,-0.281583 0.2845511,-0.564189 0.4125719,-0.853 0.019542,-0.03836 0.057025,-0.115336 0.08239,-0.152966 0.012777,-0.01895 0.029474,-0.03499 0.043,-0.05342 0.06404,-0.08724 0.1151388,-0.183148 0.177962,-0.271221 0.095394,-0.148902 0.1908852,-0.2994 0.2750444,-0.45502 0.1685486,-0.311667 0.3085033,-0.638304 0.477045,-0.949988 0.3117067,-0.618054 0.6256983,-1.23471 0.9500921,-1.846246 0.2262134,-0.426451 0.5008649,-0.939493 0.7452574,-1.360078 0.08635,-0.148602 0.1791531,-0.29336 0.2687296,-0.44004 0,0 -0.03168,0.01393 -0.03168,0.01393 z" />
    <path
       style="fill:#ffffff;stroke:#000000;stroke-width:2"
       id="path1468"
       d="m 11.257656,10.023456 c 0.04519,0.08474 0.09177,0.168744 0.135565,0.254213 0.106717,0.208289 0.209501,0.418576 0.315931,0.627013 0.635913,1.245395 1.283587,2.484716 1.918269,3.730764 0.33935,0.667179 0.663026,1.342352 0.971206,2.024481 0.142677,0.315803 0.278693,0.632486 0.400107,0.956925 0.05416,0.147802 0.09545,0.29885 0.110911,0.455428 0,0 0.03284,-0.01715 0.03284,-0.01715 v 0 c -0.01619,-0.156599 -0.05875,-0.307388 -0.11375,-0.454954 -0.123217,-0.323599 -0.261124,-0.639341 -0.405137,-0.954364 -0.311156,-0.680636 -0.636552,-1.354818 -0.977119,-2.021236 -0.636121,-1.245263 -1.286111,-2.483747 -1.913823,-3.73327 -0.105125,-0.209262 -0.205551,-0.420859 -0.310217,-0.630351 -0.04288,-0.08583 -0.08827,-0.170383 -0.13241,-0.255575 0,0 -0.03237,0.01807 -0.03237,0.01807 z" />
  </g>
</svg>
